<?xml version="1.0" encoding="UTF-8"?>
<svg id="Layer_2" xmlns="http://www.w3.org/2000/svg" version="1.1" viewBox="0 0 700.3 700.3">
  <!-- Generator: Adobe Illustrator 30.1.0, SVG Export Plug-In . SVG Version: 2.1.1 Build 136)  -->
  <defs>
    <style>
      .st0 {
        fill: #fff;
      }
    </style>
  </defs>
  <g id="Layer_1-2">
    <g>
      <path class="st0" d="M432.5,382.4l132.4,132.4-164.6,164.6c-27.6,27.6-72.4,27.6-100.1,0h0l164.6-164.6-82.3-82.3,50-50h0Z"/>
      <path class="st0" d="M217.8,103.2l82.3,82.3-32.3,32.3-82.3-82.3L20.9,300.1c-27.6,27.6-27.6,72.4,0,100.1h0l164.6-164.6,32.3,32.3L53.2,432.5l214.7,214.7,132.4-132.4-82.3-82.3,114.6-114.6,82.3,82.3,82.3-82.3,32.3,32.3-82.3,82.3,50,50,82.3-82.3c27.6-27.6,27.6-72.4,0-100.1l-164.6-164.6L185.5,464.8l-32.3-32.3L482.5,103.2l-82.3-82.3c-27.6-27.6-72.4-27.6-100.1,0l-82.3,82.3h0ZM482.5,267.8l32.3-32.3,32.3,32.3-32.3,32.3-32.3-32.3h0ZM267.8,482.5l32.3,32.3-32.3,32.3-32.3-32.3,32.3-32.3h0ZM382.4,103.2l-32.3,32.3-32.3-32.3,32.3-32.3,32.3,32.3Z"/>
    </g>
  </g>
</svg>